<svg width="33" height="29" viewBox="0 0 33 29" fill="none" xmlns="http://www.w3.org/2000/svg">
<path fill-rule="evenodd" clip-rule="evenodd" d="M16.7774 14.3403C16.7774 11.1987 19.3208 8.65178 22.4588 8.65178C25.5969 8.65178 28.1403 11.1987 28.1403 14.3403C28.1403 17.4813 25.5969 20.0282 22.4588 20.0282C19.3208 20.0282 16.7774 17.4813 16.7774 14.3403ZM4.3078 14.3403C4.3078 11.1987 6.85187 8.65178 9.98927 8.65178C13.1273 8.65178 15.6707 11.1987 15.6707 14.3403C15.6707 17.4813 13.1273 20.0282 9.98927 20.0282C6.85187 20.0282 4.3078 17.4813 4.3078 14.3403ZM25.0836 1.02275C24.7193 0.389591 24.0446 0 23.3147 0H9.13339C8.4035 0 7.72947 0.389591 7.36453 1.02275L0.274174 13.3176C-0.0913913 13.9501 -0.0913913 14.7299 0.274174 15.3624L7.36453 27.6579C7.72947 28.2904 8.4035 28.68 9.13339 28.68H23.3147C24.0446 28.68 24.7193 28.2904 25.0836 27.6579L32.1745 15.3624C32.5395 14.7299 32.5395 13.9501 32.1745 13.3176L25.0836 1.02275ZM20.2841 14.3403C20.2841 13.138 21.2579 12.1631 22.4588 12.1631C23.6598 12.1631 24.6336 13.138 24.6336 14.3403C24.6336 15.5426 23.6598 16.5175 22.4588 16.5175C21.2579 16.5175 20.2841 15.5426 20.2841 14.3403ZM19.3835 14.3403C19.3835 16.041 20.7601 17.4191 22.4588 17.4191C24.1576 17.4191 25.5342 16.041 25.5342 14.3403C25.5342 12.6397 24.1576 11.2615 22.4588 11.2615C20.7601 11.2615 19.3835 12.6397 19.3835 14.3403ZM6.91393 14.3403C6.91393 16.041 8.29116 17.4191 9.98927 17.4191C11.688 17.4191 13.0646 16.041 13.0646 14.3403C13.0646 12.6397 11.688 11.2615 9.98927 11.2615C8.29116 11.2615 6.91393 12.6397 6.91393 14.3403Z" fill="#0b1015"/>
</svg>
